<?xml version="1.0" standalone="no"?>
<!DOCTYPE svg PUBLIC "-//W3C//DTD SVG 20010904//EN"
 "http://www.w3.org/TR/2001/REC-SVG-20010904/DTD/svg10.dtd">
<svg version="1.0" xmlns="http://www.w3.org/2000/svg"
 width="56" height="56" viewBox="0 0 2232.000000 876.000000"
 preserveAspectRatio="xMidYMid meet">

<g transform="translate(0.000000,876.000000) scale(0.100000,-0.100000)"
fill="#000000" stroke="none">
<path d="M8310 7235 c-191 -85 -685 -333 -870 -436 -348 -194 -751 -444 -1065
-662 -157 -109 -168 -118 -88 -78 245 122 478 171 816 171 267 0 424 -21 617
-82 185 -59 324 -141 445 -262 160 -160 244 -344 280 -606 12 -86 15 -311 15
-1237 l0 -1133 -405 0 -405 0 0 136 0 136 -62 -55 c-129 -112 -255 -179 -416
-220 -77 -19 -113 -22 -322 -22 -245 0 -318 9 -458 55 -31 10 -58 18 -59 16
-2 -2 24 -22 57 -45 207 -146 524 -427 1060 -941 528 -507 651 -621 773 -712
43 -32 88 -58 98 -58 41 0 65 43 127 231 228 691 351 1375 414 2314 20 298 17
1384 -5 1695 -48 669 -127 1161 -263 1637 -68 237 -85 246 -284 158z"/>
<path d="M10276 5599 c-61 -14 -154 -69 -190 -111 -18 -20 -44 -61 -58 -90
-46 -95 -53 -147 -53 -378 0 -227 8 -278 57 -374 108 -211 418 -269 626 -117
36 27 122 140 122 161 0 3 -37 24 -81 45 -77 38 -82 39 -93 21 -62 -103 -115
-136 -217 -136 -108 0 -172 52 -205 167 -23 80 -16 460 9 518 77 172 299 182
398 17 13 -20 23 -38 25 -40 1 -2 38 15 83 38 l81 40 -21 41 c-28 55 -91 122
-144 153 -85 50 -233 70 -339 45z"/>
<path d="M10920 5025 l0 -566 93 3 92 3 3 243 2 242 228 -2 227 -3 3 -243 2
-243 93 3 92 3 3 563 2 562 -95 0 -95 0 -2 -232 -3 -233 -227 -3 -228 -2 0
235 0 235 -95 0 -95 0 0 -565z"/>
<path d="M12247 5548 c-8 -24 -96 -274 -196 -556 -99 -282 -181 -517 -181
-523 0 -6 35 -9 93 -7 l92 3 40 118 40 117 215 0 215 0 41 -117 41 -118 97 -3
96 -3 -69 198 c-38 109 -126 363 -196 566 l-128 367 -93 0 -92 0 -15 -42z
m185 -455 l75 -218 -150 -3 c-82 -1 -152 0 -155 2 -6 7 141 436 149 436 3 0
40 -98 81 -217z"/>
<path d="M12945 5578 c-3 -7 -4 -260 -3 -563 l3 -550 88 -3 87 -3 1 358 c0
268 3 354 11 342 7 -10 64 -133 128 -275 l116 -259 73 0 73 0 122 272 c66 150
124 273 129 273 4 0 7 -160 7 -355 l0 -355 85 0 85 0 0 565 0 566 -91 -3 -91
-3 -153 -350 c-85 -192 -158 -351 -162 -352 -4 -2 -79 156 -165 350 l-157 352
-91 3 c-67 2 -92 -1 -95 -10z"/>
<path d="M14160 5024 l0 -566 273 4 c253 4 276 6 337 28 128 46 195 149 195
300 0 62 -5 86 -28 132 -26 52 -77 110 -108 120 -8 3 5 21 34 47 60 55 82 113
82 212 -1 139 -73 234 -208 274 -39 12 -108 15 -314 15 l-263 0 0 -566z m520
378 c47 -23 72 -70 72 -134 -1 -56 -17 -86 -66 -122 -24 -19 -44 -21 -182 -24
l-154 -3 0 150 0 151 148 0 c120 0 153 -3 182 -18z m27 -478 c43 -32 65 -78
65 -134 0 -65 -26 -109 -82 -137 -40 -21 -59 -23 -192 -23 l-148 0 0 161 0
160 164 -3 c149 -3 167 -5 193 -24z"/>
<path d="M15122 5028 l3 -563 92 -3 93 -3 2 228 3 228 106 3 105 3 112 -231
111 -230 106 0 c66 0 105 4 105 10 0 6 -54 115 -120 244 l-120 232 41 18 c57
26 116 87 147 155 21 45 26 71 26 136 0 137 -62 238 -182 297 l-66 33 -283 3
-283 3 2 -563z m535 372 c100 -45 121 -186 38 -259 -48 -42 -90 -51 -241 -51
-111 0 -133 3 -138 16 -8 21 -8 299 1 307 3 4 72 7 152 7 122 0 153 -4 188
-20z"/>
<path d="M16110 5025 l0 -565 368 2 367 3 3 82 3 83 -273 2 -273 3 0 155 0
155 233 3 233 2 -3 83 -3 82 -232 3 -233 2 0 150 0 150 273 2 272 3 3 83 3 82
-371 0 -370 0 0 -565z"/>
<path d="M7500 4695 c-377 -155 -766 -432 -1160 -825 -230 -229 -413 -451
-391 -473 13 -13 80 12 416 155 449 193 571 236 622 223 48 -11 124 -79 313
-275 100 -105 186 -190 192 -190 24 0 91 204 127 385 61 307 67 747 13 963
-11 42 -23 68 -32 69 -8 2 -53 -13 -100 -32z"/>
<path d="M12370 4036 c-169 -36 -280 -157 -310 -337 -8 -45 -10 -147 -8 -282
4 -193 6 -218 28 -272 73 -188 223 -277 438 -262 168 11 294 99 351 244 23 58
44 244 39 333 l-3 55 -200 0 -200 0 -3 -77 -3 -77 108 -3 108 -3 -3 -65 c-4
-93 -42 -166 -106 -205 -42 -26 -58 -30 -125 -30 -62 0 -84 4 -118 24 -87 50
-111 112 -119 310 -14 326 35 452 184 481 104 19 205 -20 258 -100 15 -22 32
-40 39 -40 12 0 145 56 153 65 2 2 -6 22 -18 45 -81 159 -285 241 -490 196z"/>
<path d="M14753 4039 c-141 -27 -236 -111 -291 -256 -24 -63 -26 -83 -30 -275
-5 -244 5 -320 54 -418 66 -132 173 -198 335 -207 177 -11 328 69 395 210 10
20 16 39 13 41 -5 5 -147 76 -152 76 -2 0 -18 -22 -36 -50 -47 -72 -107 -105
-191 -105 -104 0 -173 52 -209 155 -17 50 -26 319 -13 422 6 48 20 105 31 126
65 127 232 157 336 61 24 -22 48 -53 55 -69 7 -17 17 -30 22 -30 21 0 158 69
158 80 0 22 -33 74 -78 123 -95 101 -250 146 -399 116z"/>
<path d="M9970 3466 l0 -566 254 0 c226 0 261 2 317 20 121 38 200 124 234
255 21 81 30 335 17 466 -7 59 -21 133 -33 165 -30 80 -112 162 -194 194 -57
23 -75 24 -327 28 l-268 4 0 -566z m500 370 c48 -25 78 -54 103 -101 21 -38
22 -54 22 -270 0 -228 0 -231 -26 -280 -18 -35 -39 -59 -74 -80 -48 -30 -50
-30 -189 -30 l-141 0 -3 380 c-1 209 0 386 3 394 8 21 258 11 305 -13z"/>
<path d="M10947 4024 c-4 -4 -7 -76 -7 -161 0 -133 2 -153 16 -153 13 0 123
93 147 125 4 6 6 51 5 100 l-3 90 -75 3 c-42 1 -79 0 -83 -4z"/>
<path d="M11435 4018 c-3 -7 -79 -222 -169 -478 -90 -256 -178 -505 -195 -553
l-31 -88 97 3 96 3 40 118 39 117 216 -2 215 -3 40 -117 39 -118 94 0 c52 0
94 3 94 8 0 4 -87 257 -194 562 l-193 555 -92 3 c-67 2 -93 -1 -96 -10z m174
-492 c39 -115 70 -211 68 -213 -2 -2 -72 -2 -154 -1 l-150 3 75 218 c41 120
78 214 82 210 4 -4 40 -102 79 -217z"/>
<path d="M13080 3465 l0 -565 95 0 95 0 2 228 3 227 102 3 103 3 111 -231 112
-230 109 0 c59 0 108 2 108 5 0 3 -54 110 -120 238 -105 202 -118 233 -104
242 145 89 194 168 194 311 0 118 -59 223 -158 281 -76 45 -135 53 -404 53
l-248 0 0 -565z m539 370 c51 -30 74 -67 79 -128 6 -74 -22 -127 -81 -156 -38
-19 -61 -21 -195 -21 l-152 0 0 158 c0 87 3 162 8 166 4 4 75 6 157 4 128 -3
155 -6 184 -23z"/>
<path d="M14067 4024 c-4 -4 -7 -259 -7 -566 l0 -559 98 3 97 3 0 560 0 560
-90 3 c-50 1 -94 0 -98 -4z"/>
<path d="M15372 3598 l3 -433 33 -67 c42 -86 118 -156 204 -189 53 -20 80 -24
173 -23 124 1 168 13 252 70 60 41 114 116 140 194 16 49 18 96 18 465 l0 410
-92 3 -92 3 -3 -403 c-3 -365 -5 -407 -22 -446 -49 -112 -196 -163 -310 -106
-45 23 -65 44 -90 89 -20 39 -21 55 -26 450 l-5 410 -93 3 -93 3 3 -433z"/>
<path d="M16400 3465 l0 -565 370 0 371 0 -3 83 -3 82 -272 3 -273 2 0 480 0
480 -95 0 -95 0 0 -565z"/>
<path d="M17020 3945 l0 -85 160 0 160 0 0 -480 0 -480 95 0 95 0 2 478 3 477
163 3 162 2 0 85 0 85 -420 0 -420 0 0 -85z"/>
<path d="M17970 3635 c0 -416 4 -463 47 -548 82 -163 287 -244 488 -192 126
33 203 97 259 214 l31 66 3 428 3 427 -96 0 -95 0 0 -388 c0 -431 -4 -461 -62
-521 -110 -112 -286 -87 -361 53 -21 40 -22 51 -25 449 l-3 407 -95 0 -94 0 0
-395z"/>
<path d="M19000 3466 l0 -566 95 0 95 0 2 228 3 227 103 3 103 3 112 -231 112
-230 108 0 c59 0 107 3 107 6 0 4 -54 111 -120 239 l-120 233 54 30 c103 59
156 156 156 286 0 40 -7 93 -16 120 -23 68 -99 147 -176 182 l-63 29 -277 3
-278 3 0 -565z m540 368 c53 -31 80 -77 80 -138 0 -68 -26 -115 -80 -143 -39
-21 -56 -23 -197 -23 l-153 0 0 158 c0 87 3 162 8 166 4 4 75 6 157 4 130 -3
155 -6 185 -24z"/>
<path d="M19985 4018 c-3 -7 -4 -260 -3 -563 l3 -550 370 0 370 0 0 80 0 80
-272 3 -273 2 0 155 0 155 230 0 230 0 0 85 0 85 -227 2 -228 3 -3 152 -3 153
273 2 273 3 0 80 0 80 -368 3 c-289 2 -369 0 -372 -10z"/>
<path d="M10145 2478 c-9 -24 -165 -738 -165 -753 0 -11 13 -15 54 -15 61 0
58 -4 76 98 l13 72 78 0 78 0 11 -57 c22 -110 20 -108 81 -108 42 0 54 3 52
15 -6 47 -157 728 -165 743 -11 21 -106 25 -113 5z m85 -338 c11 -63 24 -125
27 -137 5 -22 2 -23 -51 -23 -66 0 -65 -6 -36 136 26 129 30 147 34 143 2 -2
14 -56 26 -119z"/>
<path d="M10494 2477 c-3 -8 -4 -156 -2 -328 3 -314 3 -314 28 -358 33 -59 85
-86 165 -86 84 0 133 27 165 91 l25 49 0 320 0 320 -55 0 -55 0 -5 -310 c-4
-218 -9 -316 -17 -331 -22 -39 -67 -45 -104 -15 l-24 19 -5 319 -5 318 -53 3
c-38 2 -54 -1 -58 -11z"/>
<path d="M11005 2479 c-3 -8 -4 -183 -3 -389 l3 -375 104 -3 c172 -5 234 25
271 128 16 47 25 356 12 448 -14 96 -38 141 -92 171 -37 21 -60 25 -166 29
-99 4 -125 2 -129 -9z m195 -105 c21 -5 39 -18 51 -38 18 -29 19 -49 17 -249
l-3 -219 -29 -24 c-22 -20 -37 -24 -70 -22 l-41 3 -3 265 c-1 146 0 270 3 277
5 14 27 16 75 7z"/>
<path d="M11515 2478 c-3 -7 -4 -182 -3 -388 l3 -375 165 0 165 0 3 52 3 52
-108 3 -108 3 -3 113 -3 112 96 0 95 0 0 55 0 55 -95 0 -96 0 3 108 3 107 108
3 108 3 -3 52 -3 52 -163 3 c-125 2 -164 0 -167 -10z"/>
</g>
</svg>
