<?xml version="1.0" standalone="no"?>
<!DOCTYPE svg PUBLIC "-//W3C//DTD SVG 20010904//EN"
 "http://www.w3.org/TR/2001/REC-SVG-20010904/DTD/svg10.dtd">
<svg version="1.0" xmlns="http://www.w3.org/2000/svg"
 width="56" height="56" viewBox="0 0 295.000000 138.000000"
 preserveAspectRatio="xMidYMid meet">

<g transform="translate(0.000000,138.000000) scale(0.100000,-0.100000)"
fill="#000000" stroke="none">
<path d="M172 883 l3 -308 27 -13 c24 -11 40 -10 111 7 112 27 309 91 305 99
-2 4 -10 24 -18 45 -8 20 -20 37 -27 37 -7 0 -46 -9 -85 -20 -100 -27 -126
-26 -138 6 -6 14 -10 122 -10 240 l0 214 -85 0 -85 0 2 -307z"/>
<path d="M1430 1071 l0 -90 38 16 c20 8 58 26 85 39 47 24 47 25 47 74 l0 50
-85 0 -85 0 0 -89z"/>
<path d="M869 1125 c-147 -47 -230 -167 -216 -314 6 -74 35 -128 92 -179 66
-58 128 -77 250 -77 93 0 105 2 167 33 120 59 175 152 166 282 -12 166 -123
260 -318 267 -65 2 -110 -2 -141 -12z m172 -106 c79 -27 114 -90 107 -195 -7
-105 -61 -159 -158 -159 -98 1 -151 55 -158 160 -5 82 1 106 39 150 44 50 105
65 170 44z"/>
<path d="M2039 1121 c-100 -22 -181 -45 -256 -72 l-53 -20 0 -235 0 -234 90 0
90 0 0 194 0 193 27 27 c33 33 60 40 132 33 l57 -6 55 55 c44 45 51 56 39 64
-8 5 -20 10 -26 10 -6 0 -24 2 -40 5 -16 2 -68 -4 -115 -14z"/>
<path d="M2382 1121 c-112 -39 -181 -130 -190 -250 -9 -132 41 -225 152 -281
68 -34 72 -35 185 -34 95 0 126 4 173 23 32 12 60 26 63 31 6 9 -23 90 -32 90
-3 0 -30 -7 -60 -16 -36 -10 -81 -15 -128 -12 -126 6 -189 71 -189 193 0 71
21 117 67 145 57 35 151 19 177 -31 17 -31 -1 -45 -81 -64 -73 -18 -83 -27
-77 -67 l3 -25 150 28 c218 41 198 33 193 83 -18 153 -226 249 -406 187z"/>
<path d="M1513 940 l-83 -39 0 -170 0 -171 85 0 85 0 0 210 c0 116 -1 210 -2
210 -2 0 -40 -18 -85 -40z"/>
</g>
</svg>
