<?xml version="1.0" standalone="no"?>
<!DOCTYPE svg PUBLIC "-//W3C//DTD SVG 20010904//EN"
 "http://www.w3.org/TR/2001/REC-SVG-20010904/DTD/svg10.dtd">
<svg version="1.0" xmlns="http://www.w3.org/2000/svg"
 width="250.000000pt" height="81.000000pt" viewBox="0 0 250.000000 81.000000"
 preserveAspectRatio="xMidYMid meet">

<g transform="translate(0.000000,81.000000) scale(0.100000,-0.100000)"
fill="#000000" stroke="none">
<path d="M498 803 c-64 -4 -76 -18 -25 -28 52 -12 57 -20 57 -106 l0 -79 -26
10 c-63 24 -162 2 -206 -47 -72 -80 -57 -232 29 -289 54 -36 98 -39 154 -12
46 24 48 24 53 5 4 -16 10 -19 37 -13 17 3 47 6 65 6 40 0 45 17 8 26 -14 4
-30 17 -35 31 -5 13 -9 132 -9 264 l0 239 -22 -2 c-13 -1 -49 -3 -80 -5z m10
-246 c20 -19 22 -29 22 -132 0 -132 -10 -150 -85 -150 -78 0 -123 69 -112 172
13 120 101 176 175 110z"/>
<path d="M915 801 c-121 -31 -188 -140 -141 -229 15 -29 60 -73 90 -90 18 -9
17 -11 -12 -26 -38 -20 -62 -53 -62 -86 1 -34 20 -57 65 -79 l38 -18 -51 -13
c-30 -7 -65 -24 -82 -40 -25 -23 -30 -36 -30 -75 0 -40 5 -52 33 -80 45 -45
101 -59 232 -59 126 1 203 23 255 75 61 62 62 154 3 214 -41 41 -65 47 -211
55 -106 6 -137 11 -152 25 -45 41 -11 70 88 78 125 10 207 68 219 154 4 34 -5
67 -35 126 -2 4 26 7 62 7 63 0 66 1 66 24 0 23 -2 24 -127 30 -71 3 -148 8
-173 10 -25 3 -58 1 -75 -3z m125 -58 c84 -75 41 -253 -60 -253 -87 0 -134
132 -83 233 26 53 96 62 143 20z m73 -493 c79 0 115 -85 62 -149 -40 -47 -134
-69 -225 -51 -88 17 -132 62 -116 123 15 61 76 89 176 82 36 -3 82 -5 103 -5z"/>
<path d="M1520 790 c-72 -24 -143 -99 -165 -172 -40 -135 7 -283 108 -343 125
-73 296 -43 376 66 23 31 23 33 6 45 -16 12 -23 8 -59 -30 -126 -135 -326 -42
-326 152 l0 32 196 0 197 0 -7 58 c-13 113 -67 179 -166 201 -64 15 -97 13
-160 -9z m135 -34 c40 -17 64 -58 72 -127 l6 -49 -137 0 -136 0 0 28 c0 35 31
102 58 125 19 17 62 34 90 36 7 1 28 -5 47 -13z"/>
<path d="M83 790 c-43 -17 -40 -75 5 -87 34 -8 57 8 57 42 0 34 -31 57 -62 45z"/>
<path d="M2198 793 c-29 -5 -36 -21 -16 -41 9 -9 7 -17 -8 -34 -19 -23 -19
-23 1 -7 30 25 58 27 78 5 17 -19 17 -19 17 2 0 11 -6 23 -12 25 -7 3 -2 6 12
7 14 1 19 4 12 7 -6 2 -10 9 -6 14 4 7 -42 33 -49 28 -1 -1 -14 -4 -29 -6z"/>
<path d="M2345 760 c3 -5 8 -10 11 -10 2 0 4 5 4 10 0 6 -5 10 -11 10 -5 0 -7
-4 -4 -10z"/>
<path d="M2065 750 c-3 -5 -2 -10 4 -10 5 0 13 5 16 10 3 6 2 10 -4 10 -5 0
-13 -4 -16 -10z"/>
<path d="M2115 740 c-3 -6 1 -7 9 -4 18 7 21 14 7 14 -6 0 -13 -4 -16 -10z"/>
<path d="M2049 698 c-13 -17 -24 -27 -26 -21 -2 5 -15 8 -29 5 -55 -10 -84
-155 -49 -239 8 -19 15 -43 15 -52 0 -30 69 -99 127 -127 176 -87 390 33 405
226 3 40 0 45 -19 48 -17 2 -23 -3 -28 -27 -3 -17 -4 -35 0 -41 11 -18 -3 -11
-28 14 -17 17 -32 23 -47 19 -16 -4 -18 -8 -8 -14 10 -6 4 -17 -22 -44 -19
-20 -27 -33 -17 -30 24 10 21 -8 -8 -43 -14 -17 -25 -37 -25 -46 0 -20 -43
-63 -72 -72 -23 -7 -58 21 -58 47 0 22 -21 71 -35 81 -5 4 -20 8 -32 8 -13 0
-32 9 -43 20 -29 29 -26 71 10 105 16 15 29 31 28 34 -2 19 4 31 15 31 8 0 13
15 14 38 1 20 3 45 3 54 1 9 9 19 18 22 9 3 -3 3 -27 0 -45 -5 -45 -5 -26 16
16 17 16 20 2 20 -8 0 -26 -14 -38 -32z m281 -392 c0 -2 -8 -10 -17 -17 -16
-13 -17 -12 -4 4 13 16 21 21 21 13z"/>
<path d="M57 603 c-40 -3 -57 -8 -54 -16 2 -7 13 -13 25 -15 38 -6 43 -24 40
-163 -3 -130 -4 -133 -26 -139 -53 -12 -23 -25 66 -28 77 -2 92 0 92 13 0 8
-6 15 -14 15 -8 0 -22 7 -30 16 -13 13 -16 43 -16 170 0 117 -3 154 -12 152
-7 -1 -39 -3 -71 -5z"/>
<path d="M2481 584 c0 -11 3 -14 6 -6 3 7 2 16 -1 19 -3 4 -6 -2 -5 -13z"/>
<path d="M2125 550 c-3 -5 1 -10 9 -10 9 0 16 5 16 10 0 6 -4 10 -9 10 -6 0
-13 -4 -16 -10z"/>
<path d="M2160 521 c0 -5 6 -11 13 -13 17 -7 38 2 31 13 -7 12 -44 12 -44 0z"/>
<path d="M2220 510 c0 -5 4 -10 9 -10 6 0 13 5 16 10 3 6 -1 10 -9 10 -9 0
-16 -4 -16 -10z"/>
<path d="M2270 461 c5 -11 15 -23 21 -27 6 -3 3 5 -6 20 -20 30 -30 35 -15 7z"/>
</g>
</svg>
