<?xml version="1.0" standalone="no"?>
<!DOCTYPE svg PUBLIC "-//W3C//DTD SVG 20010904//EN"
 "http://www.w3.org/TR/2001/REC-SVG-20010904/DTD/svg10.dtd">
<svg version="1.0" xmlns="http://www.w3.org/2000/svg"
 width="280.000000pt" height="100.000000pt" viewBox="0 0 280.000000 100.000000"
 preserveAspectRatio="xMidYMid meet">

<g transform="translate(0.000000,100.000000) scale(0.100000,-0.100000)"
fill="#000000" stroke="none">
<path d="M463 948 c-201 -22 -374 -206 -390 -413 -10 -146 33 -267 131 -366
227 -229 597 -166 741 125 33 65 38 87 43 166 6 112 -14 196 -68 278 -102 158
-264 232 -457 210z m30 -29 c-4 -16 -8 -17 -14 -7 -13 19 -11 28 5 28 9 0 12
-7 9 -21z m29 -4 c-2 -14 -6 -25 -8 -25 -2 0 -4 11 -4 25 0 14 4 25 9 25 4 0
6 -11 3 -25z m68 17 c0 -5 -6 -17 -14 -27 -13 -18 -13 -17 -13 8 0 16 5 27 13
27 8 0 14 -4 14 -8z m-140 -30 c0 -16 2 -31 4 -33 3 -3 34 -2 70 1 36 3 66 2
66 -2 0 -5 6 -8 14 -8 11 0 12 8 6 35 -8 38 -8 38 38 29 l31 -6 -19 -38 -19
-37 -50 11 c-34 6 -70 7 -110 0 l-59 -10 -16 33 c-20 41 -20 41 2 46 36 10 42
7 42 -21z m-65 -22 c21 -40 20 -44 -17 -62 -61 -29 -126 -96 -160 -166 -30
-61 -33 -74 -33 -162 0 -89 2 -99 34 -158 41 -75 103 -135 179 -170 49 -23 70
-27 147 -26 77 0 98 4 146 28 181 88 262 299 184 474 -30 64 -112 153 -165
177 -22 10 -40 21 -40 24 1 3 9 20 18 38 l17 32 43 -19 c29 -13 41 -24 36 -32
-16 -29 -26 -37 -40 -31 -13 5 -13 8 0 28 12 18 13 24 2 28 -7 3 -17 -7 -23
-24 -10 -27 -9 -31 14 -46 21 -14 26 -14 35 -2 8 11 9 11 5 -3 -6 -19 15 -42
28 -30 5 4 5 2 2 -4 -4 -7 0 -17 8 -24 13 -11 15 -8 15 14 0 18 5 26 17 26 15
0 14 2 -2 20 -17 19 -18 19 -35 -3 l-18 -22 1 26 c2 19 6 25 17 21 13 -5 13
-3 1 14 -8 10 9 -3 38 -31 169 -161 181 -441 26 -622 -43 -50 -133 -106 -207
-128 -112 -33 -270 -12 -366 49 -242 153 -275 514 -64 707 50 46 55 48 68 32
7 -10 13 -22 13 -28 0 -5 -6 -2 -14 9 -7 10 -19 15 -25 11 -8 -5 -6 -12 5 -25
12 -14 13 -20 4 -26 -7 -4 -18 1 -25 11 -8 10 -17 16 -21 12 -3 -4 2 -16 12
-27 15 -17 16 -22 4 -37 -14 -18 3 -6 60 45 14 12 31 22 38 22 8 0 11 5 7 12
-4 7 -3 8 4 4 22 -13 34 5 14 20 -13 9 -18 21 -15 34 7 26 10 25 28 -10z m-50
4 c-14 -11 -16 -18 -7 -21 6 -3 12 -12 12 -21 -1 -13 -5 -12 -21 8 -20 23 -20
25 -3 37 26 19 43 15 19 -3z m292 -57 c2 -3 -5 -28 -17 -56 -21 -54 -28 -175
-11 -185 5 -3 16 11 24 31 l15 37 21 -34 c11 -19 24 -49 27 -67 7 -39 -17
-119 -35 -115 -7 1 -10 -2 -7 -7 8 -13 -21 -34 -38 -28 -13 5 -13 0 0 -41 16
-53 17 -69 7 -58 -5 4 -12 26 -18 49 l-10 42 -53 2 -52 1 -12 -46 c-6 -26 -13
-41 -16 -34 -2 7 1 26 7 43 9 26 8 31 -12 38 -41 16 -61 48 -65 110 -4 49 0
67 19 101 l23 41 20 -38 20 -38 8 69 c7 62 6 74 -17 124 -14 30 -25 56 -25 58
0 12 185 13 197 1z m-222 -47 c17 -32 11 -86 -6 -59 -7 11 -15 7 -41 -20 -20
-20 -28 -35 -21 -38 13 -5 6 -33 -8 -33 -4 0 -6 6 -3 14 3 8 1 17 -5 21 -7 4
-8 0 -4 -11 5 -13 3 -15 -7 -9 -8 5 -11 4 -7 -2 3 -5 1 -27 -5 -47 l-12 -38
-12 43 c-7 23 -11 46 -8 51 3 4 -1 5 -9 2 -33 -12 -68 -183 -45 -220 50 -82
58 -102 41 -108 -20 -8 -29 4 -49 73 -31 104 0 256 64 313 21 18 23 19 12 3
-14 -18 -14 -19 2 -7 9 8 15 19 12 26 -3 8 15 26 43 44 26 18 49 32 50 32 1 0
10 -14 18 -30z m300 14 c14 -9 23 -20 20 -24 -2 -4 7 -17 20 -30 13 -13 22
-27 18 -33 -4 -6 -1 -7 6 -2 9 5 5 15 -15 36 -15 16 -23 29 -17 29 22 0 93
-93 114 -149 13 -35 22 -81 22 -121 1 -101 -31 -190 -62 -171 -12 8 -10 15 7
43 53 83 55 97 36 173 -28 111 -48 132 -59 65 -8 -47 -20 -52 -28 -11 -4 18
-14 30 -27 34 -16 4 -19 11 -15 29 4 17 0 29 -14 42 -11 10 -19 22 -16 25 2 4
-5 7 -15 7 -10 0 -16 -4 -14 -8 3 -4 1 -8 -5 -8 -19 0 -21 19 -4 54 9 20 18
36 20 36 2 0 15 -7 28 -16z m-435 -228 c7 -30 10 -64 7 -75 -3 -12 -2 -21 2
-21 4 0 6 -24 3 -54 -3 -33 0 -56 7 -60 7 -5 11 9 11 43 0 37 4 51 14 51 18 0
27 -25 14 -38 -7 -7 -6 -17 2 -31 6 -12 8 -27 4 -34 -4 -6 -4 -9 1 -5 4 4 14
0 21 -10 18 -23 17 -32 -1 -32 -8 0 -15 7 -15 15 0 8 -14 17 -33 20 -23 5 -37
15 -45 33 -6 15 -21 44 -33 66 l-22 39 18 73 c10 41 21 74 25 74 4 0 13 -24
20 -54z m577 -63 c5 -46 2 -58 -21 -93 -14 -22 -26 -44 -26 -49 0 -5 -5 -13
-12 -17 -14 -9 -4 180 14 241 l11 40 14 -35 c8 -19 17 -58 20 -87z m-537 32
c0 -8 -4 -15 -10 -15 -5 0 -10 7 -10 15 0 8 5 15 10 15 6 0 10 -7 10 -15z
m467 0 c0 -8 -6 -15 -14 -15 -7 0 -13 7 -13 15 0 8 6 15 13 15 8 0 14 -7 14
-15z m-7 -146 c0 -33 -4 -58 -8 -55 -5 3 -19 -4 -31 -15 -32 -30 -38 -15 -12
31 14 24 20 48 16 60 -8 24 1 40 21 40 11 0 14 -15 14 -61z m-214 -24 c10 -8
14 -15 7 -15 -12 0 -12 -18 1 -38 7 -12 4 -12 -13 -2 -17 9 -26 9 -37 -1 -8
-6 -17 -9 -21 -6 -3 4 9 14 28 22 29 14 30 15 8 12 -18 -3 -26 1 -26 12 0 15
14 30 28 31 3 0 14 -7 25 -15z m-231 -55 c-3 -5 -19 -10 -35 -10 -16 0 -32 5
-35 10 -4 6 10 10 35 10 25 0 39 -4 35 -10z m95 0 c0 -5 -7 -10 -15 -10 -8 0
-15 5 -15 10 0 6 7 10 15 10 8 0 15 -4 15 -10z m250 0 c0 -5 -7 -10 -15 -10
-8 0 -15 5 -15 10 0 6 7 10 15 10 8 0 15 -4 15 -10z m140 0 c0 -5 -13 -10 -29
-10 -17 0 -33 5 -36 10 -4 6 8 10 29 10 20 0 36 -4 36 -10z m-360 -45 c34 -19
124 -19 162 1 30 15 32 15 45 -2 17 -23 17 -34 -2 -34 -8 0 -15 5 -15 10 0 6
-4 10 -10 10 -5 0 -10 -9 -10 -20 0 -11 -4 -20 -10 -20 -5 0 -10 5 -10 10 0
19 -18 10 -24 -12 l-7 -23 -11 25 c-11 25 -11 25 -15 3 -3 -13 -8 -23 -13 -23
-5 0 -10 10 -13 23 -4 22 -4 22 -15 -3 l-11 -25 -7 23 c-6 22 -24 31 -24 12 0
-5 -4 -10 -10 -10 -5 0 -10 9 -10 20 0 11 -4 20 -10 20 -5 0 -10 -8 -10 -17 0
-12 -3 -14 -11 -6 -11 11 -4 53 9 53 4 -1 18 -7 32 -15z m-139 -32 c13 -16 12
-17 -3 -4 -10 7 -18 15 -18 17 0 8 8 3 21 -13z m197 -80 c-10 -2 -26 -2 -35 0
-10 3 -2 5 17 5 19 0 27 -2 18 -5z m85 0 c-7 -2 -19 -2 -25 0 -7 3 -2 5 12 5
14 0 19 -2 13 -5z"/>
<path d="M691 867 c-13 -21 -12 -21 5 -5 10 10 16 20 13 22 -3 3 -11 -5 -18
-17z"/>
<path d="M190 761 c0 -6 4 -13 10 -16 6 -3 7 1 4 9 -7 18 -14 21 -14 7z"/>
<path d="M840 756 c0 -2 8 -10 18 -17 15 -13 16 -12 3 4 -13 16 -21 21 -21 13z"/>
<path d="M880 642 c15 -32 28 -65 28 -73 -3 -54 3 -79 20 -79 16 -1 16 -1 -1
-11 -18 -10 -18 -11 0 -24 10 -7 14 -17 10 -21 -4 -5 -12 -3 -16 5 -6 9 -10 7
-14 -8 -3 -13 1 -21 12 -24 13 -4 13 -5 -2 -6 -10 0 -17 -7 -14 -13 2 -7 -1
-20 -8 -28 -34 -42 -74 -127 -65 -138 7 -9 7 -9 -2 -2 -7 6 -16 10 -20 10 -15
0 -8 -15 12 -28 17 -10 23 -9 39 7 11 11 17 22 14 25 -4 3 -2 6 3 6 5 0 18 14
28 31 11 18 15 29 9 26 -5 -3 -15 3 -21 14 -11 18 -10 19 13 13 25 -6 26 -4
28 34 1 9 5 20 9 23 5 3 11 38 14 79 6 69 1 102 -28 185 -5 17 -10 35 -11 42
0 14 -19 13 -29 -1 -4 -6 -13 -5 -22 3 -9 8 -4 -11 14 -47z"/>
<path d="M139 668 c0 -2 -2 -11 -4 -21 -2 -10 -7 -26 -11 -35 -17 -40 -25
-122 -17 -182 5 -34 9 -41 26 -38 11 2 22 9 25 17 3 8 0 11 -7 7 -6 -4 -11 -2
-11 3 0 6 5 11 10 11 21 0 9 30 -12 31 -17 1 -19 2 -5 6 9 2 17 8 17 13 0 5
-8 11 -17 13 -17 4 -17 5 0 6 21 1 23 21 2 21 -8 0 -15 5 -15 11 0 6 9 9 20 6
16 -4 20 0 22 21 2 41 3 45 17 70 7 13 11 25 9 27 -6 5 -48 16 -49 13z"/>
<path d="M142 379 c-13 -5 -22 -12 -20 -16 3 -5 13 -27 23 -50 14 -34 21 -41
32 -32 9 8 13 8 13 1 0 -6 -4 -14 -10 -17 -18 -11 -10 -23 13 -18 18 4 19 3 7
-6 -13 -10 -13 -12 0 -20 9 -7 20 -6 30 2 8 6 6 0 -5 -13 -11 -14 -16 -22 -12
-19 4 4 23 -8 42 -25 49 -45 65 -58 65 -51 0 3 10 -1 22 -9 19 -14 23 -14 34
2 12 15 13 15 8 -4 -8 -30 32 -40 47 -12 13 24 6 31 -48 47 -46 13 -153 103
-153 128 0 12 -3 13 -14 4 -12 -10 -14 -9 -9 7 2 10 -3 26 -11 35 -9 8 -16 23
-16 32 0 12 -6 15 -22 10 -23 -7 -23 -7 -3 8 25 19 18 28 -13 16z m121 -184
c-3 -9 -8 -14 -10 -11 -3 3 -2 9 2 15 9 16 15 13 8 -4z m39 -47 c-7 -7 -12 -8
-12 -2 0 14 12 26 19 19 2 -3 -1 -11 -7 -17z"/>
<path d="M747 174 c-15 -14 -32 -22 -37 -19 -13 8 -13 -8 0 -23 7 -9 7 -9 -2
-2 -19 16 -28 12 -28 -15 0 -14 5 -25 10 -25 6 0 10 5 10 11 0 5 4 8 9 4 5 -3
16 1 24 9 8 8 18 12 22 8 4 -4 5 4 1 18 -3 14 -3 19 0 13 8 -19 27 -16 48 8
15 18 15 23 5 30 -22 14 -32 11 -62 -17z m37 -10 c3 -8 2 -12 -4 -9 -6 3 -10
10 -10 16 0 14 7 11 14 -7z"/>
<path d="M615 119 c-16 -5 -55 -9 -85 -8 -82 1 -82 1 -78 -23 3 -22 8 -23 83
-23 108 0 135 8 133 40 -3 27 -7 28 -53 14z m-130 -29 c3 -5 1 -10 -4 -10 -6
0 -11 5 -11 10 0 6 2 10 4 10 3 0 8 -4 11 -10z m145 0 c0 -5 -2 -10 -4 -10 -3
0 -8 5 -11 10 -3 6 -1 10 4 10 6 0 11 -4 11 -10z"/>
<path d="M560 596 c0 -2 8 -10 18 -17 15 -13 16 -12 3 4 -13 16 -21 21 -21 13z"/>
<path d="M518 413 c7 -3 16 -2 19 1 4 3 -2 6 -13 5 -11 0 -14 -3 -6 -6z"/>
<path d="M376 777 c3 -10 9 -15 12 -12 3 3 0 11 -7 18 -10 9 -11 8 -5 -6z"/>
<path d="M340 720 c-8 -5 -12 -12 -9 -15 4 -3 12 1 19 10 14 17 11 19 -10 5z"/>
<path d="M518 353 c6 -2 18 -2 25 0 6 3 1 5 -13 5 -14 0 -19 -2 -12 -5z"/>
<path d="M1152 688 c3 -48 6 -54 32 -63 24 -8 31 -6 47 14 24 29 26 101 4 101
-11 0 -15 -12 -15 -44 0 -28 -5 -46 -14 -49 -21 -8 -36 14 -36 55 0 21 -5 38
-11 38 -6 0 -9 -20 -7 -52z"/>
<path d="M1263 683 c4 -65 27 -88 27 -27 l0 39 31 -38 c17 -20 35 -37 40 -37
5 0 9 27 9 60 0 48 -3 60 -16 60 -13 0 -15 -8 -12 -35 2 -19 2 -35 -2 -35 -3
0 -16 16 -29 35 -36 53 -52 46 -48 -22z"/>
<path d="M1390 680 c0 -45 3 -61 13 -57 17 5 17 109 0 115 -10 3 -13 -13 -13
-58z"/>
<path d="M1430 735 c0 -16 51 -115 59 -115 11 0 36 53 47 97 9 33 -14 29 -27
-4 -5 -16 -12 -35 -15 -43 -4 -10 -11 0 -21 28 -8 23 -21 42 -29 42 -8 0 -14
-2 -14 -5z"/>
<path d="M1560 680 l0 -60 35 0 c38 0 48 17 13 22 -28 4 -36 28 -9 28 27 0 27
16 0 23 -25 7 -16 27 12 27 10 0 19 5 19 10 0 6 -16 10 -35 10 l-35 0 0 -60z"/>
<path d="M1650 679 c0 -44 3 -60 13 -56 6 2 13 10 13 18 3 32 5 33 20 7 8 -16
21 -28 29 -28 17 0 20 16 5 25 -6 4 -8 21 -4 42 8 40 -4 53 -48 53 -28 0 -28
-1 -28 -61z m54 32 c3 -5 -1 -14 -8 -20 -16 -13 -32 2 -21 19 8 12 22 13 29 1z"/>
<path d="M1760 725 c-16 -19 -6 -45 20 -52 11 -3 20 -12 20 -19 0 -10 -7 -13
-25 -8 -30 7 -35 -12 -5 -21 22 -7 60 10 60 28 0 18 -13 33 -32 40 -25 9 -23
30 2 22 14 -5 20 -2 20 9 0 21 -43 21 -60 1z"/>
<path d="M1842 683 c5 -81 28 -84 28 -4 0 48 -3 61 -15 61 -13 0 -15 -11 -13
-57z"/>
<path d="M1890 730 c0 -5 7 -10 15 -10 11 0 15 -12 15 -51 0 -66 24 -62 28 4
2 33 7 47 18 47 7 0 14 5 14 10 0 6 -20 10 -45 10 -25 0 -45 -4 -45 -10z"/>
<path d="M1990 680 l0 -60 34 0 c19 0 38 5 41 10 4 6 -5 10 -19 10 -32 0 -35
25 -3 35 l22 8 -22 4 c-32 6 -30 33 2 33 14 0 25 5 25 10 0 6 -18 10 -40 10
l-40 0 0 -60z"/>
<path d="M1180 543 c-65 -23 -43 -119 27 -111 34 4 28 22 -7 22 -21 1 -25 6
-25 31 0 27 4 30 33 33 34 3 42 16 16 26 -18 7 -23 7 -44 -1z"/>
<path d="M1257 543 c-4 -3 -7 -30 -7 -60 0 -40 4 -53 15 -53 9 0 15 9 15 25 0
20 5 25 25 25 20 0 25 -5 25 -25 0 -16 6 -25 15 -25 13 0 15 11 13 57 -2 34
-8 58 -15 61 -8 2 -13 -6 -13 -22 0 -21 -5 -26 -25 -26 -20 0 -25 5 -25 25 0
24 -10 32 -23 18z"/>
<path d="M1380 490 l0 -60 35 0 c19 0 35 5 35 10 0 6 -11 10 -25 10 -16 0 -25
6 -25 15 0 8 9 15 20 15 11 0 20 5 20 10 0 6 -9 10 -20 10 -11 0 -20 5 -20 10
0 6 11 10 25 10 16 0 25 6 25 15 0 10 -11 15 -35 15 l-35 0 0 -60z"/>
<path d="M1470 491 c0 -48 3 -61 15 -61 13 0 15 11 13 57 -4 81 -28 85 -28 4z"/>
<path d="M1520 491 c0 -49 3 -61 16 -61 9 0 14 8 13 18 -3 35 2 36 24 8 13
-16 29 -27 36 -25 9 3 6 13 -9 32 -21 26 -21 29 -6 46 9 10 16 23 16 29 0 20
-19 13 -36 -13 -20 -31 -31 -32 -30 -4 1 12 -5 24 -11 26 -10 3 -13 -12 -13
-56z"/>
<path d="M1637 543 c-4 -3 -7 -30 -7 -60 0 -40 4 -53 15 -53 9 0 15 9 15 25 0
20 5 25 25 25 20 0 25 -5 25 -25 0 -15 6 -25 15 -25 11 0 14 12 12 57 -1 34
-7 58 -14 61 -8 2 -13 -6 -13 -22 0 -21 -5 -26 -25 -26 -20 0 -25 5 -25 25 0
24 -10 32 -23 18z"/>
<path d="M1801 494 c-25 -66 -25 -64 -6 -64 8 0 15 4 15 9 0 16 34 18 53 3 9
-9 20 -13 22 -10 10 9 -36 118 -49 118 -7 0 -23 -25 -35 -56z m49 -10 c0 -8
-7 -14 -15 -14 -17 0 -18 2 -9 24 7 18 24 12 24 -10z"/>
<path d="M1909 550 c-5 -14 -7 -78 -3 -97 7 -37 24 -26 24 14 l0 38 27 -38
c39 -55 55 -49 51 18 -3 61 -21 79 -26 27 l-3 -34 -34 39 c-19 21 -35 36 -36
33z"/>
<path d="M2020 535 c0 -8 7 -15 15 -15 11 0 15 -12 15 -45 0 -33 4 -45 15 -45
11 0 15 12 15 45 0 33 4 45 15 45 8 0 15 7 15 15 0 11 -12 15 -45 15 -33 0
-45 -4 -45 -15z"/>
<path d="M2147 543 c-3 -5 -15 -32 -26 -61 -21 -52 -14 -67 15 -37 19 19 29
19 48 -1 29 -29 34 -10 12 45 -21 53 -38 71 -49 54z m23 -53 c0 -11 -4 -20
-10 -20 -5 0 -10 9 -10 20 0 11 5 20 10 20 6 0 10 -9 10 -20z"/>
<path d="M2260 490 l0 -60 39 0 c40 0 71 25 71 58 0 24 -48 62 -80 62 l-30 0
0 -60z m77 14 c8 -20 -8 -48 -31 -52 -12 -3 -16 4 -16 32 0 30 4 36 20 36 11
0 23 -7 27 -16z"/>
<path d="M2386 543 c-3 -3 -6 -30 -6 -60 0 -40 4 -53 15 -53 11 0 15 13 15 54
0 51 -9 74 -24 59z"/>
<path d="M2450 532 c-25 -20 -30 -63 -10 -87 15 -18 74 -20 88 -2 24 30 23 56
-2 82 -30 30 -46 31 -76 7z m65 -23 c12 -19 -4 -59 -24 -59 -26 0 -44 25 -36
50 7 21 49 28 60 9z"/>
<path d="M2560 490 c0 -47 3 -60 15 -60 8 0 15 9 15 20 0 13 7 20 19 20 45 0
52 62 8 74 -53 14 -57 10 -57 -54z m60 14 c0 -8 -7 -14 -15 -14 -15 0 -21 21
-9 33 10 9 24 -2 24 -19z"/>
<path d="M1150 289 l0 -62 36 6 c48 8 64 23 64 63 0 38 -21 54 -69 54 l-31 0
0 -61z m70 26 c17 -21 3 -55 -24 -55 -18 0 -22 6 -23 35 -1 27 3 35 17 35 10
0 23 -7 30 -15z"/>
<path d="M1270 290 l0 -60 35 0 c24 0 35 5 35 15 0 9 -9 15 -25 15 -14 0 -25
5 -25 10 0 6 9 10 20 10 11 0 20 4 20 9 0 5 -9 11 -20 14 -28 7 -25 27 5 27
14 0 25 5 25 10 0 6 -16 10 -35 10 l-35 0 0 -60z"/>
<path d="M1390 290 c0 -53 2 -60 19 -60 65 0 106 50 77 95 -13 20 -25 25 -56
25 l-40 0 0 -60z m70 25 c16 -19 3 -55 -21 -55 -15 0 -19 7 -19 35 0 37 18 47
40 20z"/>
<path d="M1525 313 c-27 -63 -30 -84 -11 -77 9 3 16 10 16 15 0 16 42 9 56 -8
7 -10 16 -15 19 -11 11 11 -35 118 -51 118 -8 0 -21 -17 -29 -37z m45 -25 c0
-5 -7 -8 -15 -8 -17 0 -18 2 -9 25 5 13 8 14 15 3 5 -7 9 -16 9 -20z"/>
<path d="M1622 295 c3 -58 21 -76 26 -28 l4 28 28 -35 c33 -41 52 -33 27 10
-17 28 -17 31 -1 55 23 36 -3 34 -33 -2 l-22 -28 -1 28 c0 18 -5 27 -15 27
-13 0 -15 -11 -13 -55z"/>
<path d="M1753 298 c-21 -54 -20 -84 2 -55 15 21 54 22 61 2 8 -19 24 -20 24
-1 0 28 -39 106 -53 106 -8 0 -23 -24 -34 -52z m47 -4 c0 -8 -6 -14 -14 -14
-9 0 -12 7 -9 20 6 22 23 18 23 -6z"/>
<path d="M1860 290 c0 -33 4 -60 10 -60 6 0 10 11 10 25 0 32 5 31 35 -2 27
-32 45 -25 22 8 -12 16 -13 26 -5 39 18 29 3 50 -37 50 l-35 0 0 -60z m53 25
c1 -5 -6 -11 -15 -13 -11 -2 -18 3 -18 13 0 17 30 18 33 0z"/>
</g>
</svg>
